<?xml version="1.0" encoding="utf-8"?>
<!-- Generator: Adobe Illustrator 15.1.0, SVG Export Plug-In . SVG Version: 6.00 Build 0)  -->
<!DOCTYPE svg PUBLIC "-//W3C//DTD SVG 1.1//EN" "http://www.w3.org/Graphics/SVG/1.1/DTD/svg11.dtd">
<svg version="1.1" id="レイヤー_1" xmlns="http://www.w3.org/2000/svg" xmlns:xlink="http://www.w3.org/1999/xlink" x="0px"
	 y="0px" width="33.333px" height="38.5px" viewBox="0 0 33.333 38.5" enable-background="new 0 0 33.333 38.5"
	 xml:space="preserve">
<line fill="none" stroke="#E0DB32" stroke-width="2.126" stroke-linecap="round" x1="1.874" y1="8.812" x2="6.208" y2="11.812"/>
<line fill="none" stroke="#E0DB32" stroke-width="2.126" stroke-linecap="round" x1="8.374" y1="2.896" x2="10.958" y2="6.646"/>
<line fill="none" stroke="#E0DB32" stroke-width="2.126" stroke-linecap="round" x1="17.278" y1="1.062" x2="17.278" y2="4.771"/>
<line fill="none" stroke="#E0DB32" stroke-width="2.126" stroke-linecap="round" x1="25.791" y1="3.396" x2="23.874" y2="6.646"/>
<line fill="none" stroke="#E0DB32" stroke-width="2.126" stroke-linecap="round" x1="31.374" y1="9.229" x2="28.458" y2="11.812"/>
<path fill="#E0E0E0" d="M11.208,27.729l2.082,8.583c0,0,3.334,3.333,7.75,0l2.084-8.583H11.208z"/>
<path fill="#282728" d="M13.29,36.312h7.75C21.04,36.312,17.29,39.812,13.29,36.312z"/>
<g>
	
		<line fill="none" stroke="#C7C6C6" stroke-width="0.5669" stroke-linecap="round" stroke-linejoin="round" x1="11.469" y1="28.809" x2="22.661" y2="29.634"/>
	
		<line fill="none" stroke="#C7C6C6" stroke-width="0.5669" stroke-linecap="round" stroke-linejoin="round" x1="11.698" y1="29.747" x2="22.437" y2="30.539"/>
	
		<line fill="none" stroke="#C7C6C6" stroke-width="0.5669" stroke-linecap="round" stroke-linejoin="round" x1="11.208" y1="27.893" x2="22.862" y2="28.752"/>
	
		<line fill="none" stroke="#C7C6C6" stroke-width="0.5669" stroke-linecap="round" stroke-linejoin="round" x1="11.913" y1="30.67" x2="22.217" y2="31.43"/>
	
		<line fill="none" stroke="#C7C6C6" stroke-width="0.5669" stroke-linecap="round" stroke-linejoin="round" x1="12.137" y1="31.56" x2="22.016" y2="32.287"/>
	
		<line fill="none" stroke="#C7C6C6" stroke-width="0.5669" stroke-linecap="round" stroke-linejoin="round" x1="12.356" y1="32.462" x2="21.805" y2="33.159"/>
	
		<line fill="none" stroke="#C7C6C6" stroke-width="0.5669" stroke-linecap="round" stroke-linejoin="round" x1="12.583" y1="33.401" x2="21.585" y2="34.064"/>
	
		<line fill="none" stroke="#C7C6C6" stroke-width="0.5669" stroke-linecap="round" stroke-linejoin="round" x1="12.782" y1="34.322" x2="21.348" y2="34.954"/>
	
		<line fill="none" stroke="#C7C6C6" stroke-width="0.5669" stroke-linecap="round" stroke-linejoin="round" x1="13.024" y1="35.291" x2="21.161" y2="35.891"/>
</g>
<path fill="#E0DB32" stroke="#E0DB32" stroke-width="0.7087" stroke-linecap="round" d="M11.119,27.729c0,0-5.745-7.065-3.173-13.87
	c0,0,1.457-5.408,6.602-6.019c0,0,4.803-0.872,7.375,0.349c0,0,4.372,1.919,4.973,5.583c0.6,3.663,1.115,8.548-3.688,13.957H11.119z
	"/>
<path fill="none" stroke="#FFFFFA" stroke-width="0.7087" stroke-linecap="round" d="M15.182,25.546c0,0-1.428-2.866,0-4.709
	c1.428-1.842,2.736,2.969,1.428,4.709"/>
<path fill="none" stroke="#FFFFFA" stroke-width="0.7087" stroke-linecap="round" d="M16.614,25.546c0,0-1.428-2.866,0-4.709
	c1.428-1.842,2.736,2.969,1.428,4.709"/>
<path fill="none" stroke="#FFFFFA" stroke-width="0.7087" stroke-linecap="round" d="M18.042,25.546c0,0-1.427-2.866,0-4.709
	c1.428-1.842,2.737,2.969,1.428,4.709"/>
</svg>
