<?xml version="1.0" encoding="utf-8"?>
<!-- Generator: Adobe Illustrator 15.1.0, SVG Export Plug-In . SVG Version: 6.00 Build 0)  -->
<!DOCTYPE svg PUBLIC "-//W3C//DTD SVG 1.1//EN" "http://www.w3.org/Graphics/SVG/1.1/DTD/svg11.dtd">
<svg version="1.1" id="レイヤー_1" xmlns="http://www.w3.org/2000/svg" xmlns:xlink="http://www.w3.org/1999/xlink" x="0px"
	 y="0px" width="42.833px" height="33.166px" viewBox="0 0 42.833 33.166" enable-background="new 0 0 42.833 33.166"
	 xml:space="preserve">
<polygon fill="#EAEAEA" points="42,9.165 28.313,12.603 1.5,5.165 17.5,1.665 "/>
<polygon fill="#C9C9C7" points="42,27.915 28.313,32.165 28.313,12.603 42,9.165 "/>
<polygon fill="none" stroke="#32B0D9" stroke-width="1.4173" stroke-linecap="round" stroke-linejoin="round" points="1.5,5.165 
	17.5,1.665 42,9.165 42,27.915 28.5,32.165 1.5,23.165 "/>
<polygon fill="#32B0D9" stroke="#32B0D9" stroke-width="0.7087" stroke-linecap="round" stroke-linejoin="round" points="
	4.875,11.874 4.875,17.124 8.167,18.039 8.167,12.582 "/>
<polygon fill="#32B0D9" stroke="#32B0D9" stroke-width="0.7087" stroke-linecap="round" stroke-linejoin="round" points="
	9.792,13.165 9.792,18.415 13.084,19.33 13.084,13.873 "/>
<polygon fill="#32B0D9" stroke="#32B0D9" stroke-width="0.7087" stroke-linecap="round" stroke-linejoin="round" points="
	14.709,14.374 14.709,19.624 18,20.539 18,15.082 "/>
<polygon fill="#32B0D9" stroke="#32B0D9" stroke-width="0.7087" stroke-linecap="round" stroke-linejoin="round" points="
	19.917,15.54 19.917,28.991 26.012,31.335 26.012,17.354 "/>
</svg>
