<?xml version="1.0" encoding="utf-8"?>
<!-- Generator: Adobe Illustrator 15.1.0, SVG Export Plug-In . SVG Version: 6.00 Build 0)  -->
<!DOCTYPE svg PUBLIC "-//W3C//DTD SVG 1.1//EN" "http://www.w3.org/Graphics/SVG/1.1/DTD/svg11.dtd">
<svg version="1.1" id="レイヤー_1" xmlns="http://www.w3.org/2000/svg" xmlns:xlink="http://www.w3.org/1999/xlink" x="0px"
	 y="0px" width="51.167px" height="29.667px" viewBox="0 0 51.167 29.667" enable-background="new 0 0 51.167 29.667"
	 xml:space="preserve">
<path fill="#7F7D7F" d="M47.593,2.075c-1.377-0.937-1.957,0.603-1.957,0.603H16.511l-0.58-0.603H9.555c0,0-0.09-0.471-0.863-0.471
	c-0.772,0-0.075,2.33-0.075,2.33S7.605,5.22,6.784,4.06S5.142,4.192,5.142,4.192C4.393,4.951,6.156,5.711,6.156,5.711
	C6.639,5.979,7.75,6.737,7.629,7.117c-0.12,0.379-1.11,1.316-2.561,1.562C3.62,8.925,2.051,8.233,2.051,8.233
	C1.158,8.166,1.568,8.702,1.568,8.702l1.811,1.562l1.136,0.135c1.908-0.647,2.898,0.714,2.898,0.714
	c1.787,2.03-0.797,3.728-0.797,3.728c-1.401,0.78-0.436,1.674-0.436,1.674c1.111,0.245,0.797,1.003,0.797,1.003
	c-1.11,1.987-3.453,5.581-3.453,5.581c-1.569,2.097,0.411,2.812,0.411,2.812c1.834,0.87,8.113,2.655,8.79,2.834
	c0.676,0.179,1.521,0.135,1.521,0.135c0.579-0.425-0.387-0.915-0.387-0.915c-0.725-0.536,0.531-3.303,0.531-3.303
	c1.4-4.018,3.14-7.275,3.14-7.275c1.28-2.454,2.969-1.896,2.969-1.896l5.338-0.002c0.894,0.023,1.377-0.2,1.377-0.2l1.014-0.871
	c0.433-0.443,0.628-1.271,0.628-1.271l0.072-1.808c0,0,0.017-0.227,0.37-0.804c0.281-0.458,1.127-0.312,1.127-0.312l5.045,0.201
	l0.009-0.603l0.965-0.004v0.606h0.958V9.797l0.999-0.006l-0.009,0.631h1.328l0.048-0.893h8.356l0.918-0.981V3.481L47.593,2.075z
	 M27.862,13.322c0,0-0.266,1.373-1.605,1.373c-1.342,0-4.746,0-4.746,0s-1.413-0.301-1.449-1.473
	c-0.037-1.172-0.016-2.098-0.016-2.098s0.27-1.057,0.776-1.217c1.063-0.334,1.553,0.646,1.558,1.027c0.012,0.87,0.7,1.461,0.7,1.461
	s0.653,1.104,1.739,1.038c0,0,0.368-0.188-0.072-0.424c-0.794-0.425-1.016-1.064-1.11-1.662c-0.197-1.239,0.071-1.686,0.071-1.686
	h2.415c0,0,1.594,0.312,1.739,1.294V13.322z"/>
</svg>
