<?xml version="1.0" encoding="utf-8"?>
<!-- Generator: Adobe Illustrator 15.1.0, SVG Export Plug-In . SVG Version: 6.00 Build 0)  -->
<!DOCTYPE svg PUBLIC "-//W3C//DTD SVG 1.1//EN" "http://www.w3.org/Graphics/SVG/1.1/DTD/svg11.dtd">
<svg version="1.1" id="レイヤー_1" xmlns="http://www.w3.org/2000/svg" xmlns:xlink="http://www.w3.org/1999/xlink" x="0px"
	 y="0px" width="20.121px" height="56.981px" viewBox="0 0 20.121 56.981" enable-background="new 0 0 20.121 56.981"
	 xml:space="preserve">
<path fill="#66509F" d="M5.125,38.544v16.875c0,0-1.188,1.188,0.188,1.562c0,0,1.844,0.344,5.438,0c0,0,1.917-0.938,0.527-1.755
	l-1.184-0.058l-0.031-16.625c0,0,0.588-1.878,1.588-0.148l0.08,16.96c0,0-0.178,0.958,0.729,1.272
	c1.355,0.471,4.792,0.359,6.666,0.041c0,0,1.406-1.125-0.25-1.75c0,0-0.406-0.156-1.812,0.156l-0.031-16.781l1.26-5.67
	c0,0,0.834,3.125,1.771-0.049c0.133-0.449,0-16.625,0-16.625s-0.625-5.312-5.969-5.438h-1v-2.5c0,0,1.906-0.375,1.844-2.625
	s-0.031-2-0.031-2l2.219-0.062l-0.031-0.969h-2.282c0,0-0.292-1.622-2.146-2.104C11.66-0.01,8.945-0.55,7.541,1.689
	c0,0-0.578,1.097-0.604,2.397C6.92,4.867,7.277,5.714,7.582,6.462c0.33,0.811,0.896,1.521,1.887,1.676l-0.073,2.428
	c0,0-2.404-0.205-4.854,1.02c-1.917,0.958-2.447,2.155-3.375,4.002C0.24,17.434-0.041,18.92,0,23.42s1.832,9.668,1.832,9.668
	s1.257,1.924,2.628,1.835L5.125,38.544z"/>
</svg>
