<?xml version="1.0" encoding="utf-8"?>
<!-- Generator: Adobe Illustrator 15.1.0, SVG Export Plug-In . SVG Version: 6.00 Build 0)  -->
<!DOCTYPE svg PUBLIC "-//W3C//DTD SVG 1.1//EN" "http://www.w3.org/Graphics/SVG/1.1/DTD/svg11.dtd">
<svg version="1.1" id="レイヤー_1" xmlns="http://www.w3.org/2000/svg" xmlns:xlink="http://www.w3.org/1999/xlink" x="0px"
	 y="0px" width="178px" height="515px" viewBox="0 0 178 515" enable-background="new 0 0 178 515" xml:space="preserve">
<polygon fill="#7A69AD" stroke="#574A9C" stroke-width="4.252" stroke-miterlimit="10" points="168.551,154.242 168.551,129.222 
	167.65,114.822 166.93,106.902 165.67,104.562 163.51,103.302 162.07,102.582 154.869,97.542 146.051,92.502 132.551,87.822 
	124.99,86.382 124.629,85.481 120.129,82.062 118.51,79.362 117.07,77.922 115.99,77.922 115.09,74.142 114.369,73.062 
	114.369,69.462 114.369,66.582 116.35,63.162 117.25,60.282 117.25,58.302 118.51,58.481 120.129,57.942 121.391,56.682 
	125.17,51.642 126.789,47.322 126.789,45.342 125.709,43.362 124.27,42.282 123.01,42.282 123.01,37.962 123.91,31.662 
	123.01,22.481 121.57,16.902 119.23,12.762 113.65,9.521 106.27,7.902 103.57,7.902 98.709,7.902 87.369,9.162 84.31,10.242 
	82.15,12.762 79.63,20.682 77.65,33.102 77.65,40.122 75.85,40.302 74.41,41.382 74.41,45.702 76.75,54.702 78.01,56.502 
	79.99,57.042 81.07,61.182 83.23,64.602 83.23,76.122 82.15,77.021 81.07,79.362 78.91,83.142 76.029,86.021 72.07,87.102 
	65.77,88.902 56.41,94.122 42.91,102.042 40.57,104.382 37.33,105.462 34.81,108.162 34.81,118.422 33.01,127.602 33.01,135.342 
	30.31,145.782 28.51,165.582 27.07,179.622 27.07,191.322 24.73,200.502 23.11,224.082 21.13,230.922 19.51,243.702 19.51,262.781 
	20.77,264.582 22.75,265.662 22.209,268.722 18.25,279.701 18.25,282.402 19.69,285.281 24.19,289.781 29.41,292.842 29.41,295.902 
	16.27,295.902 12.85,296.802 11.05,299.861 14.47,377.262 21.31,408.402 22.75,410.562 30.13,411.282 45.07,411.282 46.69,422.802 
	44.35,459.702 44.35,483.642 47.77,485.802 51.55,485.802 49.209,490.482 40.93,495.521 36.79,497.682 36.79,502.361 34.99,503.441 
	35.35,506.502 75.85,506.502 76.029,498.402 76.029,494.082 74.949,485.982 77.289,482.202 77.289,475.902 77.289,470.502 
	77.289,466.541 78.73,453.402 78.73,443.502 77.47,439.182 72.97,431.442 74.41,424.062 79.63,394.902 83.41,372.942 
	85.209,320.922 86.65,300.762 86.65,309.402 88.99,336.942 88.81,341.802 88.27,354.762 89.17,386.802 88.449,410.021 
	87.91,423.702 87.55,431.982 84.49,445.122 79.449,466.541 79.27,470.502 82.33,481.842 84.85,484.361 86.47,485.262 85.39,491.202 
	85.029,497.502 86.109,501.642 87.189,503.441 87.73,505.602 88.63,506.502 119.77,506.502 119.77,503.441 118.689,502.182 
	117.971,499.482 113.83,490.661 110.41,484.722 111.31,483.102 112.209,476.082 114.01,467.622 114.91,463.302 118.33,454.302 
	119.41,450.702 120.85,429.462 122.109,415.062 122.109,403.722 123.189,386.802 123.189,377.262 125.35,366.642 127.689,360.882 
	130.209,352.782 131.109,341.802 132.551,332.802 133.809,315.521 135.43,302.202 139.75,299.682 143.709,295.722 144.609,289.242 
	145.15,288.162 147.49,287.441 152.35,282.582 155.41,277.182 155.949,275.742 155.949,271.781 159.01,271.781 160.809,270.701 
	162.789,270.162 164.051,270.882 162.789,258.102 164.41,249.282 165.309,228.042 167.471,214.542 168.551,198.342 168.551,181.602 
	169.27,168.102 "/>
</svg>
