<?xml version="1.0" encoding="utf-8"?>
<!-- Generator: Adobe Illustrator 15.1.0, SVG Export Plug-In . SVG Version: 6.00 Build 0)  -->
<!DOCTYPE svg PUBLIC "-//W3C//DTD SVG 1.1//EN" "http://www.w3.org/Graphics/SVG/1.1/DTD/svg11.dtd">
<svg version="1.1" id="レイヤー_1" xmlns="http://www.w3.org/2000/svg" xmlns:xlink="http://www.w3.org/1999/xlink" x="0px"
	 y="0px" width="212px" height="501px" viewBox="0 0 212 501" enable-background="new 0 0 212 501" xml:space="preserve">
<polygon fill="#7E60A7" stroke="#58489B" stroke-width="4.252" stroke-miterlimit="10" points="204.397,467.308 202.777,466.767 
	199.897,463.888 195.577,462.987 188.377,464.788 182.978,461.728 176.857,460.647 173.077,458.487 171.997,454.888 
	158.497,443.548 156.877,438.868 156.877,434.007 156.877,429.327 148.418,419.067 148.418,412.587 145.897,402.507 
	147.697,401.968 151.117,399.987 153.637,395.487 154.897,377.126 156.518,354.626 156.518,307.106 142.298,304.947 
	142.657,307.106 137.617,307.106 137.617,303.508 135.098,297.207 132.397,294.508 124.117,294.508 123.397,292.707 
	125.018,263.188 121.598,229.887 118.537,217.467 111.518,210.447 111.518,205.047 108.997,202.527 111.877,200.907 
	115.838,194.067 119.438,208.287 123.938,213.867 125.918,214.767 121.957,199.287 120.157,190.107 120.157,184.887 
	117.997,174.087 119.077,169.047 112.418,129.627 107.737,116.127 105.577,112.527 106.117,110.187 103.418,101.187 103.418,98.487 
	99.098,94.167 100.357,88.227 100.357,81.207 102.157,78.147 108.637,77.067 114.397,75.987 115.657,74.007 115.657,70.587 
	115.657,67.167 116.197,65.547 115.478,63.207 115.478,60.507 116.557,58.167 116.557,55.287 118.177,54.567 119.617,52.767 
	120.157,51.147 118.177,47.727 114.577,44.127 113.857,41.787 113.857,36.027 115.478,33.147 116.918,27.027 114.757,23.067 
	110.438,18.747 106.117,14.427 99.997,10.827 94.057,9.747 86.678,8.667 80.377,10.647 74.258,12.087 64.177,17.847 60.397,21.627 
	56.438,31.527 56.438,39.087 57.877,45.747 60.037,55.287 64.177,62.487 66.697,69.507 67.958,69.147 68.857,73.647 67.417,74.007 
	66.337,79.047 66.337,84.087 67.237,84.447 59.677,88.947 54.817,97.227 45.277,117.927 40.237,136.647 38.797,170.847 
	38.797,205.047 40.237,211.527 44.917,213.327 52.837,213.327 54.458,218.007 52.297,227.007 50.857,248.247 50.857,269.127 
	52.837,275.066 52.837,280.287 56.257,290.188 45.277,290.188 29.438,291.986 24.397,291.986 19.897,296.486 17.377,299.008 
	17.377,367.946 19.897,372.267 22.777,373.888 33.397,373.888 46.177,373.888 47.797,379.468 43.837,396.026 42.938,404.847 
	40.237,411.507 34.837,431.847 26.737,450.747 22.237,472.347 26.017,474.507 28.357,475.946 26.917,478.288 25.837,488.548 
	28.897,490.347 47.977,490.347 50.857,487.827 53.737,487.827 59.677,490.347 91.178,490.347 100.537,484.946 100.537,480.987 
	97.478,477.927 87.938,477.927 83.797,475.407 71.918,470.907 72.277,469.468 67.958,465.327 67.958,455.427 68.857,449.126 
	75.338,445.347 80.377,440.308 88.117,418.526 91.717,407.368 100.897,407.368 102.157,409.526 107.197,425.368 111.518,435.808 
	128.617,462.446 139.957,482.067 145.537,482.067 149.677,479.728 153.637,486.567 156.877,490.347 166.057,490.347 
	170.557,485.308 172.537,483.327 177.938,483.327 194.497,476.308 204.938,468.927 "/>
</svg>
